# xmcd CD database file
#
# Track frame offsets:
#	150
#	13945
#	25195
#	36435
#	57832
#	68360
#	80980
#	91299
#	104292
#	116643
#	130148
#	140953
#	151498
#	168635
#	182817
#	200311
#	212625
#	230777
#
# Disc length: 3209 seconds
#
# Revision: 5
# Processed by: cddbd v1.5.2PL0 Copyright (c) Steve Scherf et al.
# Submitted via: CDex 1.51
#
DISCID=070c8712
DTITLE=Hugo Duncan - Catch Me If You Can
DYEAR=2002
DGENRE=Celtic
TTITLE0=Village Where I Went To School
TTITLE1=My Wild Irish Rose
TTITLE2=Cottage On The Old Dungannon Road
TTITLE3=The Blacksmith
TTITLE4=50 years Ago(Golden Jubilee)
TTITLE5=Catch Me If You Can
TTITLE6=Ashes Of love
TTITLE7=Among The Wicklow Hills
TTITLE8=Village In County Tyrone
TTITLE9=Hometown On The Foyle
TTITLE10=Misty Rolling Midlands
TTITLE11=Pretty Little Girl From Omagh
TTITLE12=If We Only Had Old Ireland Over Here 
TTITLE13=Happy Anniversary
TTITLE14=Any Tipperary Town
TTITLE15=Brady Of Strabane
TTITLE16=Fields Of Athenry
TTITLE17=Westmeath Batchelor 
EXTD=YEAR: 2002
EXTT0=
EXTT1=
EXTT2=
EXTT3=
EXTT4=
EXTT5=
EXTT6=
EXTT7=
EXTT8=
EXTT9=
EXTT10=
EXTT11=
EXTT12=
EXTT13=
EXTT14=
EXTT15=
EXTT16=
EXTT17=
PLAYORDER=
